# ProBuilder 5.0.7
# https://unity3d.com/unity/features/worldbuilding/probuilder
# 04/07/2023 08:06:20 p. m.

mtllib ./Cone.mtl
o Cone

g Cone
v 0 0.25 0
v 0.25 -0.25 0.4330127
v -0.5 -0.25 0
v 0 -0.25 0
v 0.25 -0.25 -0.4330127

vt 0.8660254 0.7071068
vt 1.732051 5.960464E-08
vt 0 0
vt -0.5 0
vt 0.25 0.4330127
vt 0.25 -0.4330127

vn -0.4472136 0.4472136 0.7745967
vn 0 -1 0
vn 0.8944272 0.4472136 -7.694926E-08
vn -0.4472136 0.4472136 -0.7745966

usemtl Tower
f 3/3/1 2/2/1 1/1/1
f 4/3/2 2/5/2 3/4/2
f 2/3/3 5/2/3 1/1/3
f 4/3/2 5/6/2 2/5/2
f 5/3/4 3/2/4 1/1/4
f 4/3/2 3/4/2 5/6/2

